<?xml version="1.0" encoding="UTF-8"?>
<svg id="Layer_1" xmlns="http://www.w3.org/2000/svg" xmlns:xlink="http://www.w3.org/1999/xlink" viewBox="0 0 1360 306.57">
  <defs>
    <style>
      .cls-1 {
        fill: #011f3d;
      }

      .cls-2 {
        fill: url(#linear-gradient);
      }
    </style>
    <linearGradient id="linear-gradient" x1="-15.36" y1="94.3" x2="262.54" y2="212.26" gradientUnits="userSpaceOnUse">
      <stop offset="0" stop-color="#8e3cf7"/>
      <stop offset=".2" stop-color="#8e3cf7"/>
      <stop offset=".8" stop-color="#3cc1b6"/>
      <stop offset="1" stop-color="#3cc1b6"/>
    </linearGradient>
  </defs>
  <g>
    <path class="cls-2" d="M134.33,127.45c-39.97-10.33-76.68-23.39-76.68-69.34H0c0,86.2,56.29,106.59,112.85,121.01,39.97,10.33,76.68,19.65,76.68,69.34h57.65c0-86.95-57.1-106.59-112.85-121.01Z"/>
    <path class="cls-1" d="M46.5,306.11h84.84c31.81,0,58.19-24.47,58.19-57.65H46.5v57.65Z"/>
    <path class="cls-1" d="M200.41.46h-84.57c-31.81,0-58.19,24.47-58.19,57.65h142.76V.46Z"/>
  </g>
  <g>
    <path class="cls-1" d="M361.15,131.45c-20.45-3.13-28.62-7.94-28.62-14.91s9.14-10.58,18.28-10.58c9.86,0,20.45,5.29,25.5,15.15l22.61-13.95c-8.9-17.32-24.29-26.7-48.11-26.7s-45.7,14.91-45.7,37.04c0,20.93,14.91,32.71,40.65,36.56,19.48,3.13,27.66,7.22,27.66,15.15,0,6.74-7.7,11.79-20.21,11.79s-22.13-8.42-26.46-18.04l-25.26,13.95c7.22,18.28,26.7,29.59,50.99,29.59,27.66,0,48.83-13.95,48.83-38.25s-15.63-32.95-40.17-36.8Z"/>
    <path class="cls-1" d="M475.71,80.45c-36.8,0-63.98,26.22-63.98,63.02s27.18,63.02,63.98,63.02,64.22-26.22,64.22-63.02-27.18-63.02-64.22-63.02ZM475.71,180.52c-20.69,0-35.6-15.15-35.6-37.04s14.91-37.04,35.6-37.04,35.84,15.15,35.84,37.04-15.15,37.04-35.84,37.04Z"/>
    <path class="cls-1" d="M1188.02,80.45c-36.8,0-62.06,26.22-62.06,63.02s25.26,63.02,62.06,63.02c26.94,0,42.09-9.14,54.12-24.54l-21.65-16.12c-7.22,9.38-16.6,15.63-32.47,15.63-18.52,0-31.27-12.03-33.92-30.07h94.53v-10.34c0-35.6-24.54-60.62-60.62-60.62ZM1155.54,128.56c4.81-14.43,16.36-24.05,32.47-24.05,17.32,0,28.62,10.82,32.23,24.05h-64.71Z"/>
    <path class="cls-1" d="M1283.27,83.34l-19.24,46.66h10.82l4.09-10.58h18.76l4.09,10.58h10.82l-19.24-46.66h-10.1ZM1282.31,110.76l6.01-15.88,6.01,15.88h-12.03Z"/>
    <path class="cls-1" d="M678.57,47.74h-27.42v35.6h-57.01v-22.37h33.19v-25.74h-34.4c-16.84,0-26.22,9.14-26.22,25.74v22.37h-25.02v25.74h25.02v94.53h27.42v-94.53h57.01v68.55c0,16.84,9.14,25.98,26.22,25.98h34.88v-25.98h-33.68v-68.55h33.68v-25.74h-33.68v-35.6Z"/>
    <path class="cls-1" d="M1334.98,105.47v7.7h14.91c-1.68,4.81-5.29,8.66-12.27,8.66-8.66,0-14.43-6.74-14.43-15.15s6.01-15.15,14.19-15.15c6.25,0,9.86,2.89,12.03,6.25l7.94-5.29c-3.61-6.01-10.58-9.86-19.97-9.86-13.47,0-23.57,10.82-23.57,24.05s9.62,24.05,23.57,24.05,22.61-9.38,22.61-22.61v-2.65h-25.02Z"/>
    <path class="cls-1" d="M1048.96,109.32v94.29h27.42v-94.29h45.46v-25.98h-46.66c-17.08,0-26.22,9.14-26.22,25.98Z"/>
    <polygon class="cls-1" points="850.55 163.92 827.94 83.34 795.71 83.34 773.1 163.92 750.97 83.34 721.14 83.34 757.22 203.61 787.05 203.61 811.83 116.29 836.6 203.61 866.43 203.61 902.51 83.34 872.92 83.34 850.55 163.92"/>
    <path class="cls-1" d="M1000.03,96.57c-6.73-9.62-19.24-16.12-36.08-16.12-34.88,0-59.89,25.98-59.89,63.02s25.02,63.02,59.89,63.02c18.52,0,29.35-7.46,36.08-16.6v13.71h27.42v-120.27h-27.42v13.23ZM966.83,180.76c-20.44,0-34.64-14.91-34.64-37.28s14.19-37.28,34.64-37.28,34.64,14.91,34.64,37.28-14.19,37.28-34.64,37.28Z"/>
  </g>
  <g>
    <path class="cls-1" d="M338.29,305.35l-4.48-11.68h-18.81l-4.48,11.68h-6.63l17.54-44.18h5.87l17.61,44.18h-6.63ZM316.96,288.5h14.89l-7.45-19.38-7.45,19.38Z"/>
    <path class="cls-1" d="M375.59,296.26l4.86-3.35c1.83,4.17,5.36,7.64,11.42,7.64,5.62,0,9.47-2.59,9.47-7.38s-3.22-6.88-11.42-8.52c-8.27-1.7-12.94-6.06-12.94-12.43,0-7.26,6.25-11.8,14.45-11.8,7.76,0,12.5,3.53,15.15,8.46l-4.54,3.41c-2.34-4.1-6.12-6.31-10.6-6.31s-8.39,2.02-8.39,6.12c0,3.66,2.78,6.06,11.17,7.83,8.39,1.83,13.25,5.43,13.25,12.94,0,8.08-6.25,13.25-15.72,13.25-7.89,0-13.88-3.98-16.16-9.84Z"/>
    <path class="cls-1" d="M418.45,283.26c0-14.2,9.97-22.85,22.03-22.85s22.03,8.65,22.03,22.85-9.97,22.85-22.03,22.85-22.03-8.65-22.03-22.85ZM456.25,283.26c0-10.67-7.13-17.1-15.78-17.1s-15.78,6.44-15.78,17.1,7.13,17.1,15.78,17.1,15.78-6.44,15.78-17.1Z"/>
    <path class="cls-1" d="M476,305.35v-39.51c0-3.03,1.64-4.67,4.67-4.67h23.92v5.68h-22.34v15.02h19.06v5.49h-19.06v17.99h-6.25Z"/>
    <path class="cls-1" d="M548.96,266.85h-14.33v38.5h-6.25v-38.5h-14.33v-5.68h34.9v5.68Z"/>
    <path class="cls-1" d="M570.29,305.35l-12.24-44.18h6.44l8.9,33.83,10.6-33.83h5.93l10.6,33.83,8.9-33.83h6.44l-12.24,44.18h-5.62l-11.04-35.47-11.04,35.47h-5.62Z"/>
    <path class="cls-1" d="M654.11,305.35l-4.48-11.68h-18.81l-4.48,11.68h-6.63l17.54-44.18h5.87l17.61,44.18h-6.63ZM632.77,288.5h14.89l-7.45-19.38-7.45,19.38Z"/>
    <path class="cls-1" d="M705.86,305.35h-6.69l-7.38-17.17h-12.31v17.17h-6.25v-44.18h16.98c9.53,0,15.08,4.86,15.08,13.51,0,6.12-3.09,10.1-7.57,11.99l8.14,18.68ZM679.48,282.56h10.92c5.43,0,8.71-2.59,8.71-7.89s-3.28-7.83-8.71-7.83h-10.92v15.72Z"/>
    <path class="cls-1" d="M719.55,305.35v-44.18h30.48v5.68h-24.23v13.19h20.95v5.36h-20.95v14.26h24.23v5.68h-30.48Z"/>
    <path class="cls-1" d="M783.42,283.26c0-14.2,9.97-22.85,21.9-22.85,7.76,0,14.52,3.41,18.62,9.66l-4.86,3.72c-3.03-4.86-7.95-7.64-13.76-7.64-8.46,0-15.65,6.44-15.65,17.1s7.2,17.1,15.65,17.1c7.45,0,13.38-4.8,14.2-12.43h-15.08v-5.18h21.84v1.7c0,13.44-9.28,21.65-20.95,21.65s-21.9-8.65-21.9-22.85Z"/>
    <path class="cls-1" d="M885.22,305.35h-6.06v-33.45l-13.95,33.45h-5.68l-13.95-33.45v33.45h-6.06v-44.18h7.7l15.15,36.35,15.15-36.35h7.7v44.18Z"/>
    <path class="cls-1" d="M901.13,305.35v-44.18h16.98c8.27,0,13.06,4.8,13.06,11.11,0,4.86-2.78,8.14-6.18,9.59,4.54,1.64,7.76,4.86,7.76,11.23,0,7.01-5.43,12.24-13.57,12.24h-18.05ZM907.37,279.73h10.16c5.05,0,7.57-2.53,7.57-6.56s-2.52-6.56-7.57-6.56h-10.16v13.13ZM907.37,299.67h11.55c4.67,0,7.57-2.84,7.57-7.32s-2.9-7.38-7.57-7.38h-11.55v14.71Z"/>
    <path class="cls-1" d="M976.86,261.17h6.25v44.18h-6.25v-19.69h-23.48v19.69h-6.25v-44.18h6.25v18.81h23.48v-18.81Z"/>
    <path class="cls-1" d="M1020.34,305.35v-44.18h16.98c8.27,0,13.06,4.8,13.06,11.11,0,4.86-2.78,8.14-6.18,9.59,4.54,1.64,7.76,4.86,7.76,11.23,0,7.01-5.43,12.24-13.57,12.24h-18.05ZM1026.59,279.73h10.16c5.05,0,7.57-2.53,7.57-6.56s-2.52-6.56-7.57-6.56h-10.16v13.13ZM1026.59,299.67h11.55c4.67,0,7.57-2.84,7.57-7.32s-2.9-7.38-7.57-7.38h-11.55v14.71Z"/>
    <path class="cls-1" d="M1098.98,305.35h-6.69l-7.38-17.17h-12.31v17.17h-6.25v-44.18h16.98c9.53,0,15.08,4.86,15.08,13.51,0,6.12-3.09,10.1-7.57,11.99l8.14,18.68ZM1072.6,282.56h10.92c5.43,0,8.71-2.59,8.71-7.89s-3.28-7.83-8.71-7.83h-10.92v15.72Z"/>
    <path class="cls-1" d="M1143.67,305.35l-4.48-11.68h-18.81l-4.48,11.68h-6.63l17.54-44.18h5.87l17.61,44.18h-6.63ZM1122.33,288.5h14.89l-7.45-19.38-7.45,19.38Z"/>
    <path class="cls-1" d="M1162.79,305.35v-44.18h6.88l22.53,34.27v-34.27h6.25v44.18h-6.88l-22.53-34.27v34.27h-6.25Z"/>
    <path class="cls-1" d="M1214.35,305.35v-44.18h13.7c12.5,0,21.9,7.89,21.9,22.09s-9.4,22.09-21.9,22.09h-13.7ZM1220.6,299.67h7.45c9.15,0,15.71-5.81,15.71-16.41s-6.56-16.41-15.71-16.41h-7.45v32.82Z"/>
  </g>
</svg>