<?xml version="1.0" encoding="UTF-8"?>
<svg xmlns="http://www.w3.org/2000/svg" xmlns:xlink="http://www.w3.org/1999/xlink" version="1.1" viewBox="0 0 432 173.61">
  <defs>
    <style>
      .cls-1 {
        fill: #000810;
      }

      .cls-1, .cls-2, .cls-3, .cls-4, .cls-5, .cls-6, .cls-7, .cls-8, .cls-9, .cls-10, .cls-11, .cls-12, .cls-13 {
        stroke-width: 0px;
      }

      .cls-2 {
        fill: url(#linear-gradient);
      }

      .cls-3 {
        fill: url(#linear-gradient-10);
      }

      .cls-4 {
        fill: #00b89f;
      }

      .cls-5 {
        fill: url(#linear-gradient-4);
      }

      .cls-6 {
        fill: url(#linear-gradient-2);
      }

      .cls-7 {
        fill: url(#linear-gradient-3);
      }

      .cls-8 {
        fill: url(#linear-gradient-8);
      }

      .cls-9 {
        fill: url(#linear-gradient-9);
      }

      .cls-10 {
        fill: url(#linear-gradient-7);
      }

      .cls-11 {
        fill: url(#linear-gradient-5);
      }

      .cls-12 {
        fill: url(#linear-gradient-6);
      }

      .cls-13 {
        fill: #00d8b8;
      }
    </style>
    <linearGradient id="linear-gradient" x1="-1636.65" y1="2579.37" x2="-1671.95" y2="2530.78" gradientTransform="translate(2011.03 2637.76) scale(1 -1)" gradientUnits="userSpaceOnUse">
      <stop offset=".37" stop-color="#3cdbc0"></stop>
      <stop offset=".89" stop-color="#00a499"></stop>
    </linearGradient>
    <linearGradient id="linear-gradient-2" x1="-1649.14" y1="2588.45" x2="-1684.45" y2="2539.86" gradientTransform="translate(2011.03 2637.76) scale(1 -1)" gradientUnits="userSpaceOnUse">
      <stop offset="0" stop-color="#00a499"></stop>
      <stop offset=".9" stop-color="#3cdbc0"></stop>
    </linearGradient>
    <linearGradient id="linear-gradient-3" x1="-1046.12" y1="3101.3" x2="-1062.85" y2="3042.96" gradientTransform="translate(3627.6 18.61) rotate(-72) scale(1 -1)" gradientUnits="userSpaceOnUse">
      <stop offset=".11" stop-color="#00a499"></stop>
      <stop offset=".84" stop-color="#39d2b8"></stop>
    </linearGradient>
    <linearGradient id="linear-gradient-4" x1="-1050.25" y1="3100.97" x2="-1085.53" y2="3052.39" gradientTransform="translate(3627.6 18.61) rotate(-72) scale(1 -1)" gradientUnits="userSpaceOnUse">
      <stop offset=".1" stop-color="#3cdbc0"></stop>
      <stop offset="1" stop-color="#00a499"></stop>
    </linearGradient>
    <linearGradient id="linear-gradient-5" x1="-267.32" y1="2741.05" x2="-233.51" y2="2690.93" gradientTransform="translate(1783.06 -2297.08) rotate(-144) scale(1 -1)" gradientUnits="userSpaceOnUse">
      <stop offset="0" stop-color="#3cdbc0"></stop>
      <stop offset=".89" stop-color="#00a499"></stop>
    </linearGradient>
    <linearGradient id="linear-gradient-6" x1="-240.63" y1="2750.69" x2="-275.92" y2="2702.12" gradientTransform="translate(1783.06 -2297.08) rotate(-144) scale(1 -1)" gradientUnits="userSpaceOnUse">
      <stop offset="0" stop-color="#00a499"></stop>
      <stop offset=".51" stop-color="#00d8b8"></stop>
    </linearGradient>
    <linearGradient id="linear-gradient-7" x1="-278.78" y1="1873.72" x2="-314.07" y2="1825.15" gradientTransform="translate(-981.09 -1273.32) rotate(143.47) scale(1 -1)" xlink:href="#linear-gradient"></linearGradient>
    <linearGradient id="linear-gradient-8" x1="-291.29" y1="1882.81" x2="-326.54" y2="1834.28" gradientTransform="translate(-981.09 -1273.32) rotate(143.47) scale(1 -1)" xlink:href="#linear-gradient-2"></linearGradient>
    <linearGradient id="linear-gradient-9" x1="-1131.47" y1="1689.37" x2="-1080.39" y2="1666.63" gradientTransform="translate(-910.68 1629.48) rotate(72) scale(1 -1)" gradientUnits="userSpaceOnUse">
      <stop offset=".11" stop-color="#00a499"></stop>
      <stop offset=".23" stop-color="#06aa9d"></stop>
      <stop offset=".39" stop-color="#17b9a8"></stop>
      <stop offset=".58" stop-color="#33d3ba"></stop>
      <stop offset=".63" stop-color="#3cdbc0"></stop>
    </linearGradient>
    <linearGradient id="linear-gradient-10" x1="-1101.79" y1="1708.89" x2="-1137.07" y2="1660.33" gradientTransform="translate(-910.68 1629.48) rotate(72) scale(1 -1)" xlink:href="#linear-gradient-2"></linearGradient>
  </defs>
  <g id="Layer_1" data-name="Layer 1">
    <g>
      <path class="cls-1" d="M40.26,36.79c-19.6,0-32.36,13.27-32.51,33.82,0,20.54,12.85,34.34,31.98,34.34,7.44,0,13.84-1.78,20.86-5.89v3.92h12.56v-62.59l-1.48-.29c-11.6-2.24-19.26-3.31-31.42-3.31ZM60.6,49.62v37.44c-7.18,4.61-12.98,6.51-19.81,6.51-12.43,0-20.47-8.91-20.47-22.7s7.9-22.7,21.12-22.7c6.54,0,12.19.42,19.16,1.45Z"></path>
      <path class="cls-1" d="M93.7,40.49l-1.5.27v62.22h12.56v-52.12c8.42-.92,15.32-1.12,22.96-1.12h1.82v-12.43h-1.82c-10.77,0-22.22,1.07-34.02,3.17Z"></path>
      <rect class="cls-1" x="143.34" y="38.76" width="12.56" height="64.22"></rect>
      <path class="cls-1" d="M149.62,10.3c-4.78,0-8.38,3.6-8.38,8.38s3.68,8.25,8.38,8.25,8.38-3.62,8.38-8.25-3.6-8.38-8.38-8.38Z"></path>
      <path class="cls-1" d="M199.99,64.77c-11.13-2.61-14.72-3.84-14.72-8.45,0-6.95,6.92-8.41,12.73-8.41s13.59,1.44,21.08,3.84l1.72.55,3.49-10.48-1.68-.6c-5.87-2.08-15.24-4.3-23.95-4.3-16.17,0-25.82,7.4-25.82,19.78,0,11.68,8.55,15.87,21.38,18.57l1.74.36c11.6,2.4,17.66,3.91,17.66,9.52,0,6.39-7.25,8.67-14.04,8.67s-16.33-2.2-24.71-5.88l-1.92-.84-3.09,11.03,1.46.63c8.98,3.87,19.35,6.18,27.73,6.18,16.66,0,26.61-7.69,26.61-20.57,0-14.01-12.48-16.73-25.66-19.61Z"></path>
      <path class="cls-1" d="M268.55,36.79c-19.6,0-33.29,13.96-33.29,33.95s13.58,34.21,34.6,34.21c9.3,0,16.31-1.85,24.51-4.27l1.59-.47-2.14-10.86-1.86.47c-8.56,2.18-14.58,3.35-21.84,3.35-11.47,0-19.33-6.34-21.36-17.08h49.96l.21-1.58c.41-3.01.41-4.15.41-7.21-.14-18.26-12.51-30.52-30.8-30.52ZM287.48,65.38h-39.05c1.64-10.91,9.25-17.6,20.25-17.6s17.89,6.69,18.8,17.6Z"></path>
    </g>
    <path class="cls-1" d="M392.74,155.13c.77,1.07,1.8,1.85,3.1,2.36,1.3.51,2.67.77,4.12.77,1.09,0,2.11-.16,3.07-.48.96-.32,1.79-.78,2.49-1.37.7-.59,1.26-1.33,1.68-2.2.42-.87.62-1.85.62-2.94,0-1.36-.28-2.43-.83-3.21-.55-.78-1.24-1.39-2.06-1.85-.82-.46-1.71-.81-2.68-1.07-.97-.25-1.87-.54-2.68-.86-.82-.32-1.51-.73-2.06-1.25-.55-.51-.83-1.25-.83-2.2,0-.34.07-.71.21-1.12.14-.4.38-.78.72-1.13.34-.35.79-.64,1.36-.86.56-.22,1.27-.34,2.12-.34.89,0,1.69.18,2.4.54.7.36,1.25.84,1.63,1.44l2.49-2.27c-.85-1.04-1.84-1.74-2.97-2.08s-2.31-.51-3.55-.51c-1.36,0-2.53.21-3.5.62-.97.42-1.76.93-2.38,1.55-.62.62-1.07,1.3-1.36,2.04-.29.75-.43,1.45-.43,2.11,0,1.47.27,2.63.83,3.5s1.24,1.55,2.06,2.06c.82.51,1.71.91,2.68,1.2.97.29,1.86.58,2.68.89.82.31,1.5.69,2.06,1.15.55.46.83,1.12.83,2,0,.62-.14,1.16-.42,1.63-.28.47-.64.86-1.07,1.18-.44.32-.92.56-1.45.72-.53.16-1.06.24-1.57.24-.92,0-1.8-.2-2.67-.59-.86-.39-1.57-1.01-2.12-1.84l-2.52,2.17ZM371.23,135.07v14.35c0,1.32.22,2.52.67,3.59.45,1.08,1.07,2.01,1.85,2.8.79.79,1.71,1.4,2.78,1.82,1.06.43,2.22.64,3.45.64s2.38-.21,3.45-.64c1.07-.43,1.99-1.03,2.78-1.82.79-.79,1.41-1.72,1.85-2.8.45-1.07.67-2.27.67-3.59v-14.35h-3.07v13.87c0,.7-.1,1.43-.29,2.19-.19.76-.51,1.45-.96,2.09-.45.64-1.03,1.16-1.76,1.57-.72.4-1.62.61-2.68.61s-1.96-.2-2.68-.61c-.72-.41-1.31-.93-1.76-1.57-.45-.64-.77-1.34-.96-2.09-.19-.76-.29-1.49-.29-2.19v-13.87h-3.07ZM337.81,157.69h3.07v-10.35h11.72v10.35h3.07v-22.62h-3.07v9.39h-11.72v-9.39h-3.07v22.62ZM323.7,157.69h3.07v-19.74h7.28v-2.88h-17.63v2.88h7.28v19.74ZM309.59,157.69h3.07v-22.62h-3.07v22.62ZM281.94,157.69h3.26l5.43-18.46h.06l5.46,18.46h3.26l6.58-22.62h-3.19l-5,18.08h-.06l-5.32-18.08h-3.51l-5.32,18.08h-.06l-5-18.08h-3.19l6.61,22.62Z"></path>
    <path class="cls-4" d="M260.48,136.38c-.93,3.99-4.83,7.38-7.1,8.4-1.11.51-1.76.56-2.83.65,2.65-5.43,6.87-10.96,9.15-10.96.74,0,1.07.7.79,1.91M249.57,147.57c.65,0,2,.14,3.53-.23,4.5-1.02,12.21-5.94,12.21-9.29,0-3.72-3.81-6.59-7.71-6.59-7.01,0-15.78,13.93-15.78,21.41,0,2.97,3.99,6.55,7.85,6.55,4.41,0,12.77-7.61,14.53-10.86.14-.33.42-1.53-.09-1.58-5.71,5.71-11.61,9.05-14.62,9.05-.84,0-1.49-.74-1.49-2.04,0-1.76.6-4.04,1.58-6.41M230.37,159.41c.19-.19,2.14-4.04,4.88-8.59,3.34-5.53,11.38-17.41,13.84-18.71-.42-.7-2.83-1.72-3.48-1.21-3.48,2.83-14.16,21.27-15.55,24.33,0-2.09,1.25-8.12,2.41-13.09.88-3.67,1.63-6.41,1.95-6.73-.14-1.02-5.34-2.93-6.18-2.18-1.35,3.57-3.9,16.21-3.99,20.76,0,.7.05,1.25.14,1.48.14.28.33.6.65.98,1.11,1.21,3.39,2.65,5.34,2.97M201.89,155.46c-.14-5.43,7.47-20.29,11.61-20.29,1.53,0,2.23,1.39,2.69,2.79-4.04,6.87-12.12,18.3-13.74,18.3-.33,0-.56-.37-.56-.79M209.88,131.82c-1.9,0-4.46,2.09-6.69,5.06-3.85,5.15-7.34,12.91-7.34,17.04,0,2.51,4.32,5.57,7.66,5.57,1.02,0,5.06-5.76,9.24-12.12-.79,1.95-2.69,7.38-2.69,8.64s3.57,3.62,5.66,4c-.09-.23-.14-.6-.14-1.02.05-1.86,1.16-5.25,2.51-9.1.98-2.74,2.32-6.41,4.55-11.1.65-1.35,1.76-3.44,2.32-3.76-.09-.56-3.06-2.41-4.73-2.37-.28,0-.6.28-.74.42-.46.51-1.16,1.58-1.9,3.02-1.26-3.11-4.74-4.27-7.71-4.27M186.11,159.17c.05-.46,2.65-5.53,5.71-11.14,3.67-6.73,8.36-14.58,10.31-15.79-.51-.7-3.11-1.53-3.76-1.02-1.72,1.11-11.51,20.43-12.58,23.22-.19-2.55,1.3-16.58,1.9-17.41-.05-1.16-5.01-3.02-5.71-2-1.86,2.23-8.31,13.05-11.14,18.53.28-3.9,4.5-17.6,5.2-18.39.14-1.3-5.57-2.97-6.08-2-1.63,3.71-4.97,17.09-5.15,21.13,0,.46.05.88.09,1.02.46,1.39,4.09,3.85,5.99,3.85.37-.56,5.99-12.91,10.08-18.99-.88,4.41-1.48,10.77-1.48,13.51,0,.6.05,1.02.09,1.21.23,1.35,4.55,4.27,6.55,4.27"></path>
    <path class="cls-1" d="M136.93,157.69h15.17v-2.88h-12.11v-7.25h10.73v-2.88h-10.73v-6.74h11.53v-2.88h-14.6v22.62ZM112.77,157.69h3.07v-10.35h11.72v10.35h3.07v-22.62h-3.07v9.39h-11.72v-9.39h-3.07v22.62ZM98.66,157.69h3.07v-19.74h7.28v-2.88h-17.63v2.88h7.28v19.74ZM64.25,157.69h15.17v-2.88h-12.11v-7.25h10.73v-2.88h-10.73v-6.74h11.53v-2.88h-14.6v22.62ZM42.66,137.95h4.6c1.83,0,3.32.3,4.47.91,1.15.61,2.05,1.35,2.7,2.22.65.87,1.09,1.79,1.33,2.76.23.97.35,1.82.35,2.54,0,1.4-.25,2.63-.77,3.69-.51,1.06-1.2,1.93-2.08,2.64s-1.89,1.23-3.05,1.58c-1.16.35-2.39.53-3.69.53h-3.86v-16.87ZM39.6,157.69h7.38c2.02,0,3.81-.32,5.35-.96,1.55-.64,2.84-1.48,3.88-2.54,1.04-1.05,1.83-2.26,2.36-3.61.53-1.35.8-2.75.8-4.2,0-.7-.08-1.47-.22-2.3-.15-.83-.39-1.66-.73-2.49-.34-.83-.8-1.64-1.39-2.43-.58-.79-1.32-1.49-2.2-2.09-.88-.61-1.93-1.09-3.13-1.45-1.2-.36-2.6-.54-4.2-.54h-7.89v22.62ZM30.49,157.69h3.07v-22.62h-3.07v22.62ZM13.38,137.75h4.02c.6,0,1.19.05,1.77.14.58.1,1.11.27,1.57.53.46.26.82.62,1.1,1.1.28.48.42,1.1.42,1.87s-.14,1.39-.42,1.87-.65.85-1.1,1.1c-.46.26-.98.43-1.57.53-.59.1-1.18.14-1.77.14h-4.02v-7.28ZM10.32,157.69h3.07v-9.97h3.42l5.75,9.97h3.83l-6.42-10.32c.85-.09,1.62-.32,2.32-.69.69-.37,1.28-.83,1.76-1.37.48-.54.85-1.15,1.1-1.82.26-.67.38-1.37.38-2.09s-.11-1.43-.32-2.19c-.21-.76-.59-1.44-1.13-2.04-.54-.61-1.28-1.11-2.22-1.5s-2.13-.59-3.58-.59h-7.96v22.62Z"></path>
  </g>
  <g id="Layer_3" data-name="Layer 3">
    <g>
      <path class="cls-13" d="M426.15,53.4c0,2.87-2.15,5.02-5.14,5.02s-5.14-2.15-5.14-5.02,2.15-5.02,5.14-5.02,5.14,2.03,5.14,5.02ZM416.59,53.4c0,2.51,1.91,4.42,4.54,4.42s4.54-1.91,4.54-4.42-1.91-4.42-4.54-4.42-4.54,1.91-4.54,4.42ZM423.28,52.45c0,.72-.48,1.31-1.08,1.67l1.55,2.03h-1.19l-1.19-1.79h-1.19v1.79h-.96v-5.5h1.91c1.19-.12,2.15.6,2.15,1.79ZM419.93,51.49v2.03h1.19c.6,0,1.19-.48,1.19-1.08s-.6-.96-1.19-.96h-1.19Z"></path>
      <g>
        <path class="cls-2" d="M358.64,46.95s-11.59,5.02-10.63,21.75c.96,16.13,11.23,29.27,30.35,34.17h-44.93s-16.13-46.72,25.21-55.92Z"></path>
        <path class="cls-6" d="M358.04,47.31c.36-.24.6-.36.6-.36-41.22,9.2-25.21,55.92-25.21,55.92h6.69c-.96-2.51-13.5-42.42,17.92-55.56Z"></path>
      </g>
      <path class="cls-7" d="M350.51,61.65s1.19,12.55,17.33,16.85c15.53,4.06,31.31-1.67,41.94-18.4l-13.86,42.78c-.12,0-49.47.84-45.41-41.22Z"></path>
      <path class="cls-5" d="M350.63,62.25c-.12-.36-.12-.6-.12-.6-4.06,42.06,45.41,41.22,45.41,41.22l2.03-6.33c-2.63,0-44.45-.36-47.32-34.29Z"></path>
      <path class="cls-11" d="M362.22,73.6s12.31,2.75,21.39-11.23c8.72-13.5,8.13-30.23-4.54-45.52l36.32,26.41c0-.12-14.46,47.08-53.17,30.35Z"></path>
      <path class="cls-12" d="M362.82,73.6c-.36,0-.6-.12-.6-.12,38.71,16.85,53.29-30.47,53.29-30.47l-5.38-3.94c-.84,2.63-14.22,42.3-47.32,34.53Z"></path>
      <g>
        <path class="cls-10" d="M377.64,66.19s6.33-10.99-4.3-23.78c-10.28-12.43-26.41-16.85-44.81-9.44l36.09-26.77c0,.12,40.75,28.08,13.02,59.98Z"></path>
        <path class="cls-8" d="M377.87,65.59c-.12.36-.24.6-.24.6,27.72-31.9-13.02-59.86-13.02-59.86l-5.38,3.94c2.15,1.55,35.97,26.05,18.64,55.32Z"></path>
      </g>
      <path class="cls-9" d="M375.37,49.58s-8.36-9.56-23.9-3.47c-15.06,5.85-24.38,19.72-23.18,39.43l-13.86-42.78c0,.12,39.43-29.51,60.94,6.81Z"></path>
      <path class="cls-3" d="M374.89,49.22c.36.24.48.48.48.48-21.51-36.44-60.94-6.69-60.94-6.69l2.03,6.33c2.15-1.67,36.2-25.93,58.43-.12Z"></path>
    </g>
  </g>
</svg>
