<svg width="117" height="32" viewBox="0 0 117 32" fill="none" xmlns="http://www.w3.org/2000/svg">
<rect width="32" height="32" rx="16" fill="#10A554"/>
<path d="M23.5711 10.5495H17.2742V13.2678C17.9 12.9027 18.6171 12.7202 19.4253 12.7202C20.351 12.7202 21.1071 13.007 21.6938 13.5807C22.2935 14.1543 22.5933 14.9495 22.5933 15.9664C22.5933 16.5401 22.4825 17.1789 22.2609 17.8829C22.0523 18.5869 21.7068 19.3039 21.2245 20.034L18.9365 18.7629C19.2363 18.3587 19.484 17.9415 19.6796 17.5113C19.8751 17.0811 19.9729 16.6378 19.9729 16.1815C19.9729 15.6992 19.8686 15.3602 19.66 15.1647C19.4645 14.9691 19.2037 14.8713 18.8778 14.8713C18.5779 14.8713 17.9978 15.1451 17.9978 15.1451C17.9978 15.1451 17.0828 15.5232 16.8742 15.7318V20.562H14.6538V18.0784C14.2236 18.3261 13.7868 18.5152 13.3436 18.6455C12.9133 18.7759 12.4114 18.8411 11.8378 18.8411C11.1208 18.8411 10.4624 18.7107 9.86268 18.45C9.27601 18.1762 8.80668 17.7786 8.45468 17.2571C8.10268 16.7356 7.92668 16.0838 7.92668 15.3015C7.92668 14.5715 8.10268 13.9457 8.45468 13.4242C8.80668 12.8897 9.29557 12.479 9.92135 12.1922C10.5471 11.8924 11.2707 11.7424 12.092 11.7424C12.4571 11.7424 12.8221 11.7555 13.1871 11.7815C13.5652 11.8076 13.8585 11.8533 14.0671 11.9184L13.8716 14.0891C13.4544 13.9848 12.9916 13.9327 12.4831 13.9327C11.8704 13.9327 11.3945 14.0565 11.0556 14.3042C10.7166 14.5389 10.5471 14.8713 10.5471 15.3015C10.5471 15.823 10.7101 16.1815 11.036 16.3771C11.3619 16.5727 11.7139 16.6704 12.092 16.6704C12.6396 16.6704 13.1219 16.5466 13.5391 16.2989C13.9693 16.0512 14.3409 15.7644 14.6538 15.4384V10.5495H7.20312V8.39844H23.5711V10.5495Z" fill="white"/>
<path d="M19.7133 25.1184C19.3744 25.2879 18.9702 25.4444 18.5009 25.5878C18.0185 25.7312 17.4449 25.8029 16.78 25.8029C16.1281 25.8029 15.548 25.679 15.0396 25.4313C14.5311 25.1967 14.1335 24.8642 13.8467 24.434C13.5468 24.0168 13.3969 23.5279 13.3969 22.9673C13.3969 22.0287 13.7293 21.279 14.3942 20.7184C15.0461 20.1709 15.5847 19.858 16.8102 19.7798L17.0449 21.794C16.38 21.8331 16.3237 21.957 16.076 22.1656C15.8283 22.3872 15.7044 22.6414 15.7044 22.9282C15.7044 23.5279 16.1021 23.8278 16.8973 23.8278C17.1972 23.8278 17.5036 23.7821 17.8164 23.6909C18.1293 23.5996 18.5074 23.4432 18.9507 23.2215L19.7133 25.1184Z" fill="white"/>
<path d="M45.9814 23H43.0459V12.0225H45.9814V16.8828L50.0859 12.0225H53.25V12.2158L49.3037 16.918L53.4258 22.7979V23H50.1211L47.3965 19.2207L45.9814 20.9082V23ZM57.4072 17.6562H59.0596C59.6689 17.6562 60.1377 17.5244 60.4658 17.2607C60.7998 16.9971 60.9668 16.6162 60.9668 16.1182C60.9668 15.6201 60.7998 15.2334 60.4658 14.958C60.1377 14.6768 59.6689 14.5361 59.0596 14.5361H57.4072V17.6562ZM64.2275 23H61.0898L58.9014 19.9414H57.4072V23H54.4717V12.0225H59.0244C60.5713 12.0225 61.7637 12.3799 62.6016 13.0947C63.4453 13.8037 63.8672 14.8145 63.8672 16.127C63.8672 17.7324 63.1699 18.8428 61.7754 19.458L64.2275 22.7627V23ZM75.0732 12.0225V17.7617C75.0732 19.584 74.6602 20.9404 73.834 21.8311C73.0078 22.7158 71.751 23.1582 70.0635 23.1582C68.376 23.1582 67.1191 22.7129 66.293 21.8223C65.4668 20.9316 65.0537 19.5781 65.0537 17.7617V12.0225H67.9805V17.7617C67.9805 19.6074 68.6748 20.5303 70.0635 20.5303C71.4521 20.5303 72.1436 19.6074 72.1377 17.7617V12.0225H75.0732ZM85.708 14.6855H82.3066V23H79.3711V14.6855H75.9873V12.0225H85.708V14.6855ZM89.7334 17.6562H91.3857C91.9951 17.6562 92.4639 17.5244 92.792 17.2607C93.126 16.9971 93.293 16.6162 93.293 16.1182C93.293 15.6201 93.126 15.2334 92.792 14.958C92.4639 14.6768 91.9951 14.5361 91.3857 14.5361H89.7334V17.6562ZM96.5537 23H93.416L91.2275 19.9414H89.7334V23H86.7979V12.0225H91.3506C92.8975 12.0225 94.0898 12.3799 94.9277 13.0947C95.7715 13.8037 96.1934 14.8145 96.1934 16.127C96.1934 17.7324 95.4961 18.8428 94.1016 19.458L96.5537 22.7627V23ZM100.509 23H97.5732V12.0225H100.509V23ZM112.664 23L112.532 17.208V16.6982L109.957 23H108.199L105.642 16.6982V17.1289L105.501 23H102.548L102.979 12.0225H106.257L108.806 17.999C108.899 18.251 108.99 18.5264 109.078 18.8252C109.16 18.5264 109.251 18.251 109.351 17.999L111.908 12.0225H115.178L115.608 23H112.664Z" fill="#222222"/>
</svg>
